<svg width="336" height="505" viewBox="0 0 336 505" fill="none" xmlns="http://www.w3.org/2000/svg">
<path d="M166.323 248.807L161.736 251.218L162.612 246.11L158.899 242.492L164.028 241.747L166.323 237.098L168.617 241.747L173.747 242.492L170.035 246.11L170.912 251.218L166.323 248.807Z" fill="#94A3B8"/>
<path d="M188.619 11.4618L185.014 13.3566L185.702 9.34277L182.785 6.50024L186.815 5.91456L188.619 2.26213L190.421 5.91456L194.451 6.50024L191.535 9.34277L192.224 13.3566L188.619 11.4618Z" fill="#94A3B8"/>
<g clip-path="url(#clip0_25_1132)">
<path d="M296.019 410.246C294.638 410.246 293.519 409.127 293.519 407.746C293.519 406.365 294.638 405.246 296.019 405.246C297.399 405.246 298.519 406.365 298.519 407.746C298.519 409.127 297.399 410.246 296.019 410.246Z" fill="#94A3B8"/>
</g>
<g clip-path="url(#clip1_25_1132)">
<path d="M223.654 363.001C221.308 363.001 219.407 361.1 219.407 358.755C219.407 356.409 221.308 354.508 223.654 354.508C225.999 354.508 227.901 356.409 227.901 358.755C227.901 361.1 225.999 363.001 223.654 363.001Z" fill="#94A3B8"/>
</g>
<g clip-path="url(#clip2_25_1132)">
<path d="M191 196.246C189.619 196.246 188.5 195.127 188.5 193.746C188.5 192.366 189.619 191.246 191 191.246C192.381 191.246 193.5 192.366 193.5 193.746C193.5 195.127 192.381 196.246 191 196.246Z" fill="#94A3B8"/>
</g>
<path d="M238.007 262.614C234.782 262.614 232.168 260 232.168 256.775C232.168 253.55 234.782 250.936 238.007 250.936C241.232 250.936 243.846 253.55 243.846 256.775C243.846 260 241.232 262.614 238.007 262.614Z" fill="#94A3B8"/>
<g clip-path="url(#clip3_25_1132)">
<path d="M200.996 131.816C199.824 131.816 198.873 130.866 198.873 129.693C198.873 128.52 199.824 127.57 200.996 127.57C202.169 127.57 203.12 128.52 203.12 129.693C203.12 130.866 202.169 131.816 200.996 131.816Z" fill="#94A3B8"/>
</g>
<g clip-path="url(#clip4_25_1132)">
<path d="M243.478 172.929C241.425 172.929 239.762 171.265 239.762 169.213C239.762 167.161 241.425 165.497 243.478 165.497C245.53 165.497 247.193 167.161 247.193 169.213C247.193 171.265 245.53 172.929 243.478 172.929Z" fill="#94A3B8"/>
</g>
<g clip-path="url(#clip5_25_1132)">
<path d="M105.171 242.176C103.412 242.176 101.986 240.75 101.986 238.991C101.986 237.232 103.412 235.806 105.171 235.806C106.93 235.806 108.356 237.232 108.356 238.991C108.356 240.75 106.93 242.176 105.171 242.176Z" fill="#94A3B8"/>
</g>
<path d="M260.67 111.807V107.826C260.67 107.615 260.586 107.412 260.437 107.263C260.287 107.114 260.085 107.03 259.874 107.03C259.662 107.03 259.46 107.114 259.311 107.263C259.161 107.412 259.077 107.615 259.077 107.826V111.807H255.096C254.885 111.807 254.682 111.891 254.533 112.041C254.384 112.19 254.3 112.393 254.3 112.604C254.3 112.815 254.384 113.017 254.533 113.167C254.682 113.316 254.885 113.4 255.096 113.4H259.077V117.381C259.077 117.592 259.161 117.795 259.311 117.944C259.46 118.094 259.662 118.177 259.874 118.177C260.085 118.177 260.287 118.094 260.437 117.944C260.586 117.795 260.67 117.592 260.67 117.381V113.4H264.651C264.862 113.4 265.065 113.316 265.214 113.167C265.364 113.017 265.447 112.815 265.447 112.604C265.447 112.393 265.364 112.19 265.214 112.041C265.065 111.891 264.862 111.807 264.651 111.807H260.67Z" fill="#94A3B8"/>
<path d="M224.248 57.8056V55.6823C224.248 55.5696 224.203 55.4616 224.124 55.382C224.044 55.3023 223.936 55.2576 223.823 55.2576C223.711 55.2576 223.603 55.3023 223.523 55.382C223.443 55.4616 223.399 55.5696 223.399 55.6823V57.8056H221.275C221.163 57.8056 221.055 57.8504 220.975 57.93C220.895 58.0097 220.851 58.1177 220.851 58.2303C220.851 58.3429 220.895 58.4509 220.975 58.5306C221.055 58.6102 221.163 58.655 221.275 58.655H223.399V60.7783C223.399 60.891 223.443 60.999 223.523 61.0786C223.603 61.1583 223.711 61.203 223.823 61.203C223.936 61.203 224.044 61.1583 224.124 61.0786C224.203 60.999 224.248 60.891 224.248 60.7783V58.655H226.371C226.484 58.655 226.592 58.6102 226.672 58.5306C226.751 58.4509 226.796 58.3429 226.796 58.2303C226.796 58.1177 226.751 58.0097 226.672 57.93C226.592 57.8504 226.484 57.8056 226.371 57.8056H224.248Z" fill="#94A3B8"/>
<g clip-path="url(#clip6_25_1132)">
<path d="M302.84 92.7577C301.081 92.7577 299.655 91.3317 299.655 89.5727C299.655 87.8136 301.081 86.3876 302.84 86.3876C304.599 86.3876 306.025 87.8136 306.025 89.5727C306.025 91.3317 304.599 92.7577 302.84 92.7577Z" fill="#94A3B8"/>
</g>
<path d="M245.709 499.571V497.448C245.709 497.335 245.664 497.227 245.585 497.148C245.505 497.068 245.397 497.023 245.284 497.023C245.172 497.023 245.064 497.068 244.984 497.148C244.904 497.227 244.86 497.335 244.86 497.448V499.571H242.736C242.624 499.571 242.516 499.616 242.436 499.696C242.356 499.775 242.312 499.883 242.312 499.996C242.312 500.108 242.356 500.216 242.436 500.296C242.516 500.376 242.624 500.42 242.736 500.42H244.86V502.544C244.86 502.656 244.904 502.764 244.984 502.844C245.064 502.924 245.172 502.969 245.284 502.969C245.397 502.969 245.505 502.924 245.585 502.844C245.664 502.764 245.709 502.656 245.709 502.544V500.42H247.832C247.945 500.42 248.053 500.376 248.133 500.296C248.212 500.216 248.257 500.108 248.257 499.996C248.257 499.883 248.212 499.775 248.133 499.696C248.053 499.616 247.945 499.571 247.832 499.571H245.709Z" fill="#94A3B8"/>
<path d="M332.552 187.888L333.491 186.95C333.516 186.925 333.536 186.896 333.55 186.864C333.564 186.831 333.571 186.797 333.572 186.761C333.572 186.726 333.565 186.691 333.552 186.658C333.539 186.626 333.519 186.596 333.494 186.571C333.469 186.546 333.439 186.527 333.407 186.513C333.374 186.5 333.339 186.493 333.304 186.494C333.269 186.494 333.234 186.501 333.201 186.515C333.169 186.529 333.14 186.549 333.115 186.575L332.177 187.513L331.239 186.575C331.214 186.549 331.185 186.529 331.152 186.515C331.12 186.501 331.085 186.494 331.05 186.494C331.015 186.493 330.98 186.5 330.947 186.513C330.915 186.527 330.885 186.546 330.86 186.571C330.835 186.596 330.815 186.626 330.802 186.658C330.789 186.691 330.782 186.726 330.782 186.761C330.783 186.797 330.79 186.831 330.804 186.864C330.818 186.896 330.838 186.925 330.863 186.95L331.802 187.888L330.863 188.827C330.838 188.851 330.818 188.88 330.804 188.913C330.79 188.945 330.783 188.98 330.782 189.015C330.782 189.051 330.789 189.085 330.802 189.118C330.815 189.151 330.835 189.18 330.86 189.205C330.885 189.23 330.915 189.25 330.947 189.263C330.98 189.277 331.015 189.283 331.05 189.283C331.085 189.283 331.12 189.275 331.152 189.261C331.185 189.248 331.214 189.227 331.239 189.202L332.177 188.264L333.115 189.202C333.14 189.227 333.169 189.248 333.201 189.261C333.234 189.275 333.269 189.283 333.304 189.283C333.339 189.283 333.374 189.277 333.407 189.263C333.439 189.25 333.469 189.23 333.494 189.205C333.519 189.18 333.539 189.151 333.552 189.118C333.565 189.085 333.572 189.051 333.572 189.015C333.571 188.98 333.564 188.945 333.55 188.913C333.536 188.88 333.516 188.851 333.491 188.827L332.552 187.888V187.888Z" fill="#94A3B8"/>
<path d="M275.601 43.2056L278.416 40.39C278.492 40.3165 278.553 40.2287 278.595 40.1315C278.636 40.0344 278.658 39.9299 278.659 39.8242C278.66 39.7185 278.64 39.6136 278.6 39.5157C278.56 39.4179 278.501 39.329 278.426 39.2542C278.351 39.1795 278.262 39.1203 278.165 39.0803C278.067 39.0403 277.962 39.0201 277.856 39.021C277.75 39.022 277.646 39.0439 277.549 39.0856C277.452 39.1274 277.364 39.188 277.29 39.2641L274.475 42.0789L271.66 39.2641C271.587 39.188 271.499 39.1274 271.402 39.0856C271.304 39.0439 271.2 39.022 271.094 39.021C270.988 39.0201 270.884 39.0403 270.786 39.0803C270.688 39.1203 270.599 39.1795 270.524 39.2542C270.449 39.329 270.39 39.4179 270.35 39.5157C270.31 39.6136 270.29 39.7185 270.291 39.8242C270.292 39.9299 270.314 40.0344 270.356 40.1315C270.397 40.2287 270.458 40.3165 270.534 40.39L273.349 43.2048L270.534 46.0203C270.458 46.0938 270.397 46.1816 270.356 46.2788C270.314 46.3759 270.292 46.4804 270.291 46.5862C270.29 46.6919 270.31 46.7967 270.35 46.8946C270.39 46.9924 270.449 47.0813 270.524 47.1561C270.599 47.2309 270.688 47.29 270.786 47.33C270.884 47.3701 270.988 47.3902 271.094 47.3893C271.2 47.3884 271.304 47.3664 271.402 47.3247C271.499 47.2829 271.587 47.2223 271.66 47.1462L274.475 44.3315L277.29 47.1462C277.364 47.2223 277.452 47.2829 277.549 47.3247C277.646 47.3664 277.75 47.3884 277.856 47.3893C277.962 47.3902 278.067 47.3701 278.165 47.33C278.262 47.29 278.351 47.2309 278.426 47.1561C278.501 47.0813 278.56 46.9924 278.6 46.8946C278.64 46.7967 278.66 46.6919 278.659 46.5862C278.658 46.4804 278.636 46.3759 278.595 46.2788C278.553 46.1816 278.492 46.0938 278.416 46.0203L275.601 43.2048V43.2056Z" fill="#94A3B8"/>
<path d="M289.52 318.851V315.665C289.52 315.497 289.453 315.335 289.333 315.215C289.214 315.096 289.052 315.028 288.883 315.028C288.714 315.028 288.552 315.096 288.432 315.215C288.313 315.335 288.246 315.497 288.246 315.665V318.851H285.061C284.892 318.851 284.73 318.918 284.61 319.037C284.491 319.157 284.424 319.319 284.424 319.488C284.424 319.656 284.491 319.818 284.61 319.938C284.73 320.057 284.892 320.125 285.061 320.125H288.246V323.31C288.246 323.478 288.313 323.641 288.432 323.76C288.552 323.879 288.714 323.947 288.883 323.947C289.052 323.947 289.214 323.879 289.333 323.76C289.453 323.641 289.52 323.478 289.52 323.31V320.125H292.705C292.874 320.125 293.036 320.057 293.155 319.938C293.275 319.818 293.342 319.656 293.342 319.488C293.342 319.319 293.275 319.157 293.155 319.037C293.036 318.918 292.874 318.851 292.705 318.851H289.52Z" fill="#94A3B8"/>
<path d="M7.13 266.782V264.127C7.13 263.987 7.07408 263.852 6.97453 263.752C6.87497 263.653 6.73995 263.597 6.59917 263.597C6.45838 263.597 6.32336 263.653 6.22381 263.752C6.12426 263.852 6.06833 263.987 6.06833 264.127V266.782H3.41414C3.27335 266.782 3.13833 266.838 3.03878 266.937C2.93923 267.037 2.8833 267.172 2.8833 267.312C2.8833 267.453 2.93923 267.588 3.03878 267.688C3.13833 267.787 3.27335 267.843 3.41414 267.843H6.06833V270.497C6.06833 270.638 6.12426 270.773 6.22381 270.873C6.32336 270.972 6.45838 271.028 6.59917 271.028C6.73995 271.028 6.87497 270.972 6.97453 270.873C7.07408 270.773 7.13 270.638 7.13 270.497V267.843H9.78419C9.92498 267.843 10.06 267.787 10.1596 267.688C10.2591 267.588 10.315 267.453 10.315 267.312C10.315 267.172 10.2591 267.037 10.1596 266.937C10.06 266.838 9.92498 266.782 9.78419 266.782H7.13Z" fill="#94A3B8"/>
<path d="M291.673 214.783L293.174 213.282C293.215 213.243 293.247 213.196 293.269 213.144C293.292 213.092 293.303 213.036 293.304 212.98C293.304 212.924 293.294 212.868 293.272 212.816C293.251 212.763 293.219 212.716 293.18 212.676C293.14 212.636 293.092 212.605 293.04 212.583C292.988 212.562 292.932 212.551 292.876 212.552C292.819 212.552 292.763 212.564 292.712 212.586C292.66 212.608 292.613 212.641 292.574 212.681L291.072 214.183L289.571 212.681C289.532 212.641 289.485 212.608 289.433 212.586C289.381 212.564 289.326 212.552 289.269 212.552C289.213 212.551 289.157 212.562 289.105 212.583C289.052 212.605 289.005 212.636 288.965 212.676C288.925 212.716 288.894 212.763 288.872 212.816C288.851 212.868 288.84 212.924 288.841 212.98C288.841 213.036 288.853 213.092 288.875 213.144C288.898 213.196 288.93 213.243 288.97 213.282L290.472 214.783L288.97 216.285C288.93 216.324 288.898 216.371 288.875 216.423C288.853 216.474 288.841 216.53 288.841 216.586C288.84 216.643 288.851 216.699 288.872 216.751C288.894 216.803 288.925 216.851 288.965 216.89C289.005 216.93 289.052 216.962 289.105 216.983C289.157 217.005 289.213 217.015 289.269 217.015C289.326 217.014 289.381 217.003 289.433 216.98C289.485 216.958 289.532 216.926 289.571 216.885L291.072 215.384L292.574 216.885C292.613 216.926 292.66 216.958 292.712 216.98C292.763 217.003 292.819 217.014 292.876 217.015C292.932 217.015 292.988 217.005 293.04 216.983C293.092 216.962 293.14 216.93 293.18 216.89C293.219 216.851 293.251 216.803 293.272 216.751C293.294 216.699 293.304 216.643 293.304 216.586C293.303 216.53 293.292 216.474 293.269 216.423C293.247 216.371 293.215 216.324 293.174 216.285L291.673 214.783V214.783Z" fill="#94A3B8"/>
<defs>
<clipPath id="clip0_25_1132">
<rect width="6" height="6" fill="white" transform="translate(293.019 404.73)"/>
</clipPath>
<clipPath id="clip1_25_1132">
<rect width="10.1921" height="10.1921" fill="white" transform="translate(218.558 353.631)"/>
</clipPath>
<clipPath id="clip2_25_1132">
<rect width="6" height="6" fill="white" transform="translate(188 190.73)"/>
</clipPath>
<clipPath id="clip3_25_1132">
<rect width="5.09605" height="5.09605" fill="white" transform="translate(198.448 127.131)"/>
</clipPath>
<clipPath id="clip4_25_1132">
<rect width="8.91808" height="8.91808" fill="white" transform="translate(239.019 164.73)"/>
</clipPath>
<clipPath id="clip5_25_1132">
<rect width="7.64407" height="7.64407" fill="white" transform="translate(101.349 235.148)"/>
</clipPath>
<clipPath id="clip6_25_1132">
<rect width="7.64407" height="7.64407" fill="white" transform="translate(299.019 85.7299)"/>
</clipPath>
</defs>
</svg>
