<svg xmlns="http://www.w3.org/2000/svg" width="81" height="81" viewBox="0 0 81 81" fill="none">
 <path
  d="M42.317 8.26344C41.4469 7.68697 40.4238 7.38512 39.3801 7.39701C38.3364 7.40889 37.3204 7.73397 36.4637 8.33011L10.247 26.5968C8.84701 27.5701 8.01367 29.1634 8.01367 30.8701V50.5468C8.01367 52.2968 8.89367 53.9268 10.3537 54.8901L37.0003 72.5068C37.8522 73.07 38.8508 73.3703 39.872 73.3703C40.8932 73.3703 41.8918 73.07 42.7437 72.5068L69.9203 54.5534C71.3803 53.5868 72.257 51.9534 72.257 50.2068V30.8734C72.257 29.1268 71.3803 27.4968 69.9237 26.5301L42.317 8.26344ZM62.617 29.5734L52.5703 36.3168L43.1503 29.4668L43.0903 15.9934L62.6137 29.5734H62.617ZM36.277 16.0068V29.1968L26.6203 35.9434L16.997 29.4868L36.277 16.0068ZM14.3537 35.9834L20.587 40.1601L14.3537 44.5201V35.9868V35.9834ZM36.437 64.0934L17.0003 51.0634L26.7103 44.2734L36.4437 50.8001V64.1001L36.437 64.0934ZM32.7537 40.0501L39.047 35.6501L46.3803 40.4668L39.8803 44.8334L32.7537 40.0501ZM43.3103 64.0934V50.7934L52.6103 44.5601L62.6203 51.1434L43.3103 64.0934ZM65.3937 44.7434L58.7937 40.4101L65.3937 35.9801V44.7468V44.7434Z"
  fill="#F1F5F9" />
</svg>