<svg xmlns="http://www.w3.org/2000/svg" width="44" height="26" viewBox="0 0 44 26" fill="none">
 <path fill-rule="evenodd" clip-rule="evenodd"
  d="M35.1145 17.8362C30.6382 17.8362 26.935 19.512 26.319 21.6918H26.229V25.5582H44V21.6918H43.91C43.2941 19.512 39.5909 17.8362 35.1145 17.8362ZM35.1145 15.2659C37.2176 15.2659 38.9226 13.5397 38.9226 11.4103C38.9226 9.28087 37.2176 7.55469 35.1145 7.55469C33.0113 7.55469 31.3064 9.28087 31.3064 11.4103C31.3064 13.5397 33.0113 15.2659 35.1145 15.2659Z"
  fill="#C7ECF4" />
 <path fill-rule="evenodd" clip-rule="evenodd"
  d="M8.88548 17.8362C4.40911 17.8362 0.705873 19.512 0.0900211 21.6918H0V25.5582H17.771V21.6918H17.681C17.0651 19.512 13.3619 17.8362 8.88548 17.8362ZM8.88548 15.2659C10.9886 15.2659 12.6935 13.5397 12.6935 11.4103C12.6935 9.28087 10.9886 7.55469 8.88548 7.55469C6.78233 7.55469 5.07742 9.28087 5.07742 11.4103C5.07742 13.5397 6.78233 15.2659 8.88548 15.2659Z"
  fill="#C7ECF4" />
 <path fill-rule="evenodd" clip-rule="evenodd"
  d="M21.9978 15.2642C16.0305 15.2642 11.0938 17.4981 10.2728 20.404H10.1528V25.5581H33.8427V20.404H33.7227C32.9017 17.4981 27.965 15.2642 21.9978 15.2642ZM21.9978 11.8377C24.8014 11.8377 27.0742 9.53658 27.0742 6.69798C27.0742 3.85938 24.8014 1.55823 21.9978 1.55823C19.1942 1.55823 16.9214 3.85938 16.9214 6.69798C16.9214 9.53658 19.1942 11.8377 21.9978 11.8377Z"
  fill="#53B6CB" />
</svg>