<svg width="24" height="19" viewBox="0 0 24 19" fill="none" xmlns="http://www.w3.org/2000/svg">
  <path
    d="M0.075 2.72605C0.226227 2.06342 0.597983 1.47177 1.12938 1.04802C1.66078 0.62426 2.32033 0.393509 3 0.393555H21C21.6797 0.393509 22.3392 0.62426 22.8706 1.04802C23.402 1.47177 23.7738 2.06342 23.925 2.72605L12 10.0146L0.075 2.72605ZM0 4.43905V15.0951L8.7045 9.75805L0 4.43905ZM10.1415 10.6386L0.2865 16.6791C0.52999 17.1925 0.91429 17.6262 1.39467 17.9297C1.87505 18.2332 2.43176 18.3941 3 18.3936H21C21.5681 18.3937 22.1246 18.2325 22.6048 17.9287C23.0849 17.6249 23.4688 17.191 23.712 16.6776L13.857 10.6371L12 11.7726L10.1415 10.6371V10.6386ZM15.2955 9.75956L24 15.0951V4.43905L15.2955 9.75805V9.75956Z"
    fill="#53B6CB" />
</svg>