<svg width="24" height="29" viewBox="0 0 24 29" fill="none" xmlns="http://www.w3.org/2000/svg">
  <path
    d="M12 14.3936C12.825 14.3936 13.5315 14.1192 14.1195 13.5704C14.7065 13.0225 15 12.3636 15 11.5936C15 10.8236 14.7065 10.1642 14.1195 9.61535C13.5315 9.06749 12.825 8.79355 12 8.79355C11.175 8.79355 10.469 9.06749 9.882 9.61535C9.294 10.1642 9 10.8236 9 11.5936C9 12.3636 9.294 13.0225 9.882 13.5704C10.469 14.1192 11.175 14.3936 12 14.3936ZM12 28.3936C7.975 25.1969 4.969 22.2275 2.982 19.4854C0.994 16.7442 0 14.2069 0 11.8736C0 8.37355 1.2065 5.58522 3.6195 3.50855C6.0315 1.43189 8.825 0.393555 12 0.393555C15.175 0.393555 17.9685 1.43189 20.3805 3.50855C22.7935 5.58522 24 8.37355 24 11.8736C24 14.2069 23.0065 16.7442 21.0195 19.4854C19.0315 22.2275 16.025 25.1969 12 28.3936Z"
    fill="#53B6CB" />
</svg>