<svg xmlns="http://www.w3.org/2000/svg" width="40" height="41" viewBox="0 0 40 41" fill="none">
 <path
  d="M20.0002 36.9291C10.7952 36.9291 3.3335 29.4674 3.3335 20.2624C3.3335 11.0574 10.7952 3.59576 20.0002 3.59576C29.2052 3.59576 36.6668 11.0574 36.6668 20.2624C36.6668 29.4674 29.2052 36.9291 20.0002 36.9291ZM20.0002 33.5958C23.5364 33.5958 26.9278 32.191 29.4283 29.6905C31.9287 27.19 33.3335 23.7987 33.3335 20.2624C33.3335 16.7262 31.9287 13.3348 29.4283 10.8343C26.9278 8.33386 23.5364 6.9291 20.0002 6.9291C16.4639 6.9291 13.0726 8.33386 10.5721 10.8343C8.07159 13.3348 6.66683 16.7262 6.66683 20.2624C6.66683 23.7987 8.07159 27.19 10.5721 29.6905C13.0726 32.191 16.4639 33.5958 20.0002 33.5958ZM20.0002 31.9291C18.4681 31.9291 16.951 31.6273 15.5355 31.041C14.1201 30.4547 12.8339 29.5954 11.7506 28.512C10.6672 27.4287 9.80787 26.1425 9.22157 24.7271C8.63526 23.3116 8.3335 21.7945 8.3335 20.2624C8.3335 18.7303 8.63526 17.2133 9.22157 15.7978C9.80787 14.3823 10.6672 13.0962 11.7506 12.0129C12.8339 10.9295 14.1201 10.0701 15.5355 9.48384C16.951 8.89753 18.4681 8.59576 20.0002 8.59576C23.0944 8.59576 26.0618 9.82493 28.2497 12.0129C30.4377 14.2008 31.6668 17.1682 31.6668 20.2624C31.6668 23.3566 30.4377 26.3241 28.2497 28.512C26.0618 30.6999 23.0944 31.9291 20.0002 31.9291ZM20.0002 28.5958C22.2103 28.5958 24.3299 27.7178 25.8927 26.155C27.4555 24.5922 28.3335 22.4726 28.3335 20.2624C28.3335 18.0523 27.4555 15.9327 25.8927 14.3699C24.3299 12.8071 22.2103 11.9291 20.0002 11.9291C17.79 11.9291 15.6704 12.8071 14.1076 14.3699C12.5448 15.9327 11.6668 18.0523 11.6668 20.2624C11.6668 22.4726 12.5448 24.5922 14.1076 26.155C15.6704 27.7178 17.79 28.5958 20.0002 28.5958ZM20.0002 26.9291C18.2321 26.9291 16.5364 26.2267 15.2861 24.9765C14.0359 23.7262 13.3335 22.0305 13.3335 20.2624C13.3335 18.4943 14.0359 16.7986 15.2861 15.5484C16.5364 14.2981 18.2321 13.5958 20.0002 13.5958C21.7683 13.5958 23.464 14.2981 24.7142 15.5484C25.9645 16.7986 26.6668 18.4943 26.6668 20.2624C26.6668 22.0305 25.9645 23.7262 24.7142 24.9765C23.464 26.2267 21.7683 26.9291 20.0002 26.9291ZM20.0002 23.5958C20.8842 23.5958 21.7321 23.2446 22.3572 22.6195C22.9823 21.9943 23.3335 21.1465 23.3335 20.2624C23.3335 19.3784 22.9823 18.5305 22.3572 17.9054C21.7321 17.2803 20.8842 16.9291 20.0002 16.9291C19.1161 16.9291 18.2683 17.2803 17.6431 17.9054C17.018 18.5305 16.6668 19.3784 16.6668 20.2624C16.6668 21.1465 17.018 21.9943 17.6431 22.6195C18.2683 23.2446 19.1161 23.5958 20.0002 23.5958ZM20.0002 21.9291C19.5581 21.9291 19.1342 21.7535 18.8217 21.4409C18.5091 21.1284 18.3335 20.7045 18.3335 20.2624C18.3335 19.8204 18.5091 19.3965 18.8217 19.0839C19.1342 18.7714 19.5581 18.5958 20.0002 18.5958C20.4422 18.5958 20.8661 18.7714 21.1787 19.0839C21.4912 19.3965 21.6668 19.8204 21.6668 20.2624C21.6668 20.7045 21.4912 21.1284 21.1787 21.4409C20.8661 21.7535 20.4422 21.9291 20.0002 21.9291Z"
  fill="#53B6CB" />
</svg>