<svg xmlns="http://www.w3.org/2000/svg" width="49" height="49" viewBox="0 0 49 49" fill="none">
 <path
  d="M16.9925 24.044L7.09251 14.144C6.90149 13.9595 6.74913 13.7388 6.64431 13.4948C6.53949 13.2508 6.48432 12.9884 6.48201 12.7228C6.4797 12.4573 6.5303 12.1939 6.63087 11.9481C6.73143 11.7023 6.87993 11.479 7.06772 11.2912C7.25551 11.1034 7.47881 10.9549 7.7246 10.8544C7.97039 10.7538 8.23375 10.7032 8.49931 10.7055C8.76487 10.7078 9.02731 10.763 9.27132 10.8678C9.51533 10.9726 9.73602 11.125 9.92051 11.316L21.2345 22.63C21.6095 23.0051 21.8201 23.5137 21.8201 24.044C21.8201 24.5744 21.6095 25.083 21.2345 25.458L9.92051 36.772C9.73602 36.963 9.51533 37.1154 9.27132 37.2202C9.02731 37.325 8.76487 37.3802 8.49931 37.3825C8.23375 37.3848 7.97039 37.3342 7.7246 37.2337C7.47881 37.1331 7.25551 36.9846 7.06772 36.7968C6.87993 36.609 6.73143 36.3857 6.63087 36.1399C6.5303 35.8941 6.4797 35.6308 6.48201 35.3652C6.48432 35.0997 6.53949 34.8372 6.64431 34.5932C6.74913 34.3492 6.90149 34.1285 7.09251 33.944L16.9925 24.044ZM24.5065 32.73H40.5065C41.0369 32.73 41.5457 32.9407 41.9207 33.3158C42.2958 33.6909 42.5065 34.1996 42.5065 34.73C42.5065 35.2605 42.2958 35.7692 41.9207 36.1442C41.5457 36.5193 41.0369 36.73 40.5065 36.73H24.5065C23.9761 36.73 23.4674 36.5193 23.0923 36.1442C22.7172 35.7692 22.5065 35.2605 22.5065 34.73C22.5065 34.1996 22.7172 33.6909 23.0923 33.3158C23.4674 32.9407 23.9761 32.73 24.5065 32.73Z"
  fill="#CBD5E1" />
</svg>