<svg xmlns="http://www.w3.org/2000/svg" width="65" height="65" viewBox="0 0 65 65" fill="none">
 <path
  d="M40.4868 42.0634C39.7796 42.0634 39.1013 41.7825 38.6012 41.2824C38.1011 40.7823 37.8202 40.104 37.8202 39.3968C37.8202 38.6895 38.1011 38.0112 38.6012 37.5111C39.1013 37.011 39.7796 36.7301 40.4868 36.7301C42.8948 36.729 45.2574 36.0758 47.324 34.84C49.3906 33.6041 51.0839 31.8317 52.2242 29.7109C53.3645 27.5901 53.9092 25.2 53.8004 22.7946C53.6917 20.3891 52.9335 18.058 51.6065 16.0488C50.2795 14.0395 48.4332 12.4271 46.2635 11.3827C44.0939 10.3384 41.6819 9.9011 39.2837 10.1173C36.8855 10.3334 34.5906 11.195 32.6427 12.6105C30.6947 14.026 29.1665 15.9426 28.2202 18.1568L26.3002 22.6528L21.6548 21.1274C20.5556 20.7674 19.3913 20.6501 18.2423 20.7835C17.0933 20.9169 15.9869 21.2979 14.9994 21.9002C14.0118 22.5025 13.1667 23.3118 12.5221 24.2723C11.8776 25.2328 11.449 26.3216 11.2659 27.4638C11.0828 28.6059 11.1495 29.7741 11.4615 30.888C11.7735 32.0018 12.3234 33.0348 13.0731 33.9156C13.8229 34.7964 14.7548 35.5042 15.8045 35.9901C16.8542 36.476 17.9968 36.7284 19.1535 36.7301H24.4868C25.1941 36.7301 25.8724 37.011 26.3725 37.5111C26.8726 38.0112 27.1535 38.6895 27.1535 39.3968C27.1535 40.104 26.8726 40.7823 26.3725 41.2824C25.8724 41.7825 25.1941 42.0634 24.4868 42.0634H19.1535C17.2249 42.0623 15.3195 41.6429 13.5687 40.834C11.818 40.0251 10.2635 38.8461 9.01262 37.3781C7.76173 35.9102 6.84416 34.1884 6.32324 32.3315C5.80231 30.4746 5.69041 28.5268 5.99527 26.6224C6.30013 24.7181 7.01449 22.9026 8.08906 21.3011C9.16363 19.6996 10.5728 18.3502 12.2195 17.3462C13.8661 16.3421 15.7109 15.7073 17.6267 15.4853C19.5425 15.2634 21.4836 15.4597 23.3162 16.0608C25.0084 12.1078 28.013 8.85998 31.8227 6.86595C35.6323 4.87192 40.0135 4.25387 44.2261 5.1162C48.4387 5.97853 52.2245 8.26839 54.9442 11.599C57.6639 14.9296 59.1507 19.0968 59.1535 23.3968C59.1535 28.3475 57.1868 33.0954 53.6862 36.5961C50.1855 40.0968 45.4375 42.0634 40.4868 42.0634ZM34.3802 34.2341C35.7642 34.7621 36.4788 36.3701 35.9748 37.8234L32.3268 48.3568C31.8202 49.8101 30.2922 50.5594 28.9082 50.0288C27.5242 49.5008 26.8122 47.8928 27.3162 46.4394L30.9642 35.9061C31.4655 34.4528 32.9962 33.7034 34.3802 34.2341ZM38.7322 44.7648C40.1162 45.2928 40.8282 46.9008 40.3242 48.3541L36.6762 58.8874C36.1748 60.3408 34.6442 61.0901 33.2602 60.5594C31.8762 60.0314 31.1615 58.4234 31.6655 56.9701L35.3135 46.4368C35.8202 44.9834 37.3482 44.2341 38.7322 44.7648ZM29.8202 44.5941H37.8202C39.2922 44.5941 40.4868 45.8474 40.4868 47.3968C40.4868 48.9434 39.2922 50.1968 37.8202 50.1968H29.8202C28.3482 50.1968 27.1535 48.9434 27.1535 47.3968C27.1535 45.8501 28.3482 44.5968 29.8202 44.5968V44.5941Z"
  fill="#E2E8F0" />
</svg>