<svg width="40" height="41" viewBox="0 0 40 41" fill="none" xmlns="http://www.w3.org/2000/svg">
  <g clip-path="url(#clip0_188_1254)">
    <path
      d="M2.5 0.262425L0 2.76242L5.5 10.4649C5.73154 10.7893 6.03727 11.0536 6.3917 11.2358C6.74612 11.418 7.13898 11.5129 7.5375 11.5124H7.7125C8.0412 11.5122 8.36672 11.5767 8.67044 11.7024C8.97416 11.8281 9.25011 12.0125 9.4825 12.2449L16.17 18.9324L9.6275 25.5674C8.50848 25.238 7.3281 25.1739 6.17999 25.3802C5.03188 25.5864 3.94763 26.0574 3.01325 26.7557C2.07886 27.454 1.32005 28.3604 0.797009 29.4031C0.273966 30.4457 0.0010805 31.5959 0 32.7624C0.00149866 33.8373 0.234009 34.8992 0.681779 35.8764C1.12955 36.8535 1.78211 37.723 2.59527 38.4259C3.40842 39.1288 4.36315 39.6487 5.39479 39.9504C6.42643 40.2522 7.51086 40.3286 8.57462 40.1746C9.63838 40.0206 10.6566 39.6397 11.5603 39.0578C12.464 38.4759 13.2321 37.7066 13.8125 36.8019C14.3929 35.8972 14.7721 34.8784 14.9244 33.8144C15.0766 32.7504 14.9984 31.6661 14.695 30.6349L21.33 24.0924L23.75 26.5124L22.9875 28.7974C22.841 29.2379 22.82 29.7104 22.9268 30.1621C23.0337 30.6138 23.2642 31.0268 23.5925 31.3549L31.7675 39.5299C31.9991 39.7629 32.2745 39.9478 32.5779 40.0739C32.8812 40.2001 33.2065 40.265 33.535 40.265C33.8635 40.265 34.1888 40.2001 34.4921 40.0739C34.7955 39.9478 35.0709 39.7629 35.3025 39.5299L39.2675 35.5649C39.5005 35.3333 39.6853 35.0579 39.8115 34.7546C39.9376 34.4512 40.0026 34.1259 40.0026 33.7974C40.0026 33.4689 39.9376 33.1436 39.8115 32.8403C39.6853 32.537 39.5005 32.2616 39.2675 32.0299L31.0925 23.8549C30.7644 23.5266 30.3514 23.2961 29.8997 23.1893C29.448 23.0824 28.9754 23.1034 28.535 23.2499L26.25 24.0124L23.85 21.6124L30.55 15.0049C31.6615 15.3016 32.8262 15.3391 33.9545 15.1145C35.0827 14.8898 36.1443 14.4091 37.0574 13.7093C37.9704 13.0095 38.7106 12.1094 39.2208 11.0783C39.731 10.0473 39.9976 8.91281 40 7.76242C40 7.08992 39.9125 6.43743 39.745 5.81993L34.395 11.1724L30 10.2624L29.09 5.86993L34.4425 0.517425C33.1692 0.175078 31.8282 0.174439 30.5546 0.515572C29.281 0.856706 28.1199 1.52755 27.1882 2.4605C26.2565 3.39344 25.5873 4.55551 25.2479 5.82956C24.9085 7.10361 24.9109 8.44463 25.255 9.71743L18.655 16.4124L11.9825 9.74492C11.5136 9.27619 11.2501 8.64041 11.25 7.97743V7.79993C11.25 7.40183 11.155 7.00947 10.9728 6.65551C10.7906 6.30155 10.5265 5.99622 10.2025 5.76493L2.5 0.262425ZM26.615 26.8774C26.7311 26.761 26.8691 26.6687 27.0209 26.6056C27.1728 26.5426 27.3356 26.5102 27.5 26.5102C27.6644 26.5102 27.8272 26.5426 27.9791 26.6056C28.1309 26.6687 28.2689 26.761 28.385 26.8774L35.67 34.1649C35.8977 34.4007 36.0237 34.7164 36.0208 35.0442C36.018 35.3719 35.8865 35.6854 35.6548 35.9172C35.423 36.149 35.1095 36.2804 34.7818 36.2833C34.454 36.2861 34.1383 36.1601 33.9025 35.9324L26.615 28.6474C26.4986 28.5313 26.4062 28.3934 26.3432 28.2415C26.2802 28.0896 26.2478 27.9268 26.2478 27.7624C26.2478 27.598 26.2802 27.4352 26.3432 27.2833C26.4062 27.1315 26.4986 26.9935 26.615 26.8774ZM7.5 27.7624L8.6775 28.3674L10 28.4324L10.7175 29.5449L11.83 30.2624L11.895 31.5849L12.5 32.7624L11.895 33.9399L11.83 35.2624L10.7175 35.9799L10 37.0924L8.6775 37.1574L7.5 37.7624L6.3225 37.1574L5 37.0924L4.2825 35.9799L3.17 35.2624L3.105 33.9399L2.5 32.7624L3.105 31.5849L3.17 30.2624L4.2825 29.5449L5 28.4324L6.3225 28.3674L7.5 27.7624Z"
      fill="#53B6CB" />
  </g>
  <defs>
    <clipPath id="clip0_188_1254">
      <rect width="40" height="40" fill="white" transform="translate(0 0.262451)" />
    </clipPath>
  </defs>
</svg>