<svg xmlns="http://www.w3.org/2000/svg" width="48" height="49" viewBox="0 0 48 49" fill="none">
 <path
  d="M11.2719 22.6784L23.9999 35.4064L36.7279 22.6784C37.8532 21.5531 38.4854 20.0269 38.4854 18.4354C38.4854 16.844 37.8532 15.3177 36.7279 14.1924C36.1707 13.6352 35.5092 13.1932 34.7812 12.8917C34.0532 12.5901 33.2729 12.4349 32.4849 12.4349C30.8935 12.4349 29.3672 13.0671 28.2419 14.1924L23.9999 18.4344L19.7579 14.1944C18.6298 13.0842 17.1086 12.4648 15.5258 12.471C13.9429 12.4773 12.4267 13.1087 11.3073 14.2278C10.188 15.3469 9.55616 16.863 9.54953 18.4458C9.5429 20.0287 10.162 21.55 11.2719 22.6784ZM22.5859 11.3624L23.9999 12.7764L25.4139 11.3624C26.341 10.4272 27.4437 9.68423 28.6587 9.17628C29.8737 8.66833 31.1771 8.40537 32.494 8.40248C33.8109 8.3996 35.1154 8.65685 36.3326 9.15948C37.5498 9.6621 38.6558 10.4002 39.587 11.3314C40.5182 12.2626 41.2563 13.3685 41.7589 14.5857C42.2615 15.803 42.5188 17.1075 42.5159 18.4244C42.513 19.7413 42.25 21.0446 41.7421 22.2596C41.2341 23.4746 40.4912 24.5773 39.5559 25.5044L25.4159 39.6464C25.2302 39.8324 25.0096 39.9799 24.7668 40.0805C24.524 40.1812 24.2638 40.233 24.0009 40.233C23.7381 40.233 23.4778 40.1812 23.235 40.0805C22.9923 39.9799 22.7717 39.8324 22.5859 39.6464L8.44393 25.5064C7.49595 24.5823 6.7409 23.4791 6.22259 22.2609C5.70427 21.0427 5.433 19.7338 5.42452 18.4099C5.41604 17.086 5.67051 15.7737 6.17317 14.5489C6.67584 13.3242 7.41669 12.2115 8.35275 11.2753C9.28881 10.3391 10.4014 9.59806 11.6261 9.09522C12.8508 8.59238 14.1631 8.33773 15.487 8.34602C16.8108 8.35432 18.1199 8.6254 19.3381 9.14354C20.5564 9.66169 21.6597 10.4166 22.5839 11.3644L22.5859 11.3624Z"
  fill="#53B6CB" />
</svg>