<svg width="91" height="73" viewBox="0 0 91 73" fill="none" xmlns="http://www.w3.org/2000/svg">
<g filter="url(#filter0_d_30_1454)">
<path d="M59.383 10.0057C53.9328 9.87814 48.946 11.8925 45.2029 15.2632C45.1951 15.2699 45.1843 15.2699 45.1765 15.2632C41.4334 11.893 36.4461 9.87814 30.9964 10.0057C19.8157 10.2676 11.0005 19.6592 11.0005 30.843V53.9504C11.0005 57.6945 14.036 60.73 17.7801 60.73C21.5243 60.73 24.5598 57.6945 24.5598 53.9504V30.7041C24.5598 26.9687 27.4238 23.7406 31.155 23.5665C35.1233 23.3811 38.4108 26.5561 38.4108 30.4846V53.9504C38.4108 57.6945 41.4463 60.73 45.1905 60.73C48.9346 60.73 51.9701 57.6945 51.9701 53.9504V30.7041C51.9701 26.9687 54.8341 23.7406 58.5653 23.5665C62.5336 23.3811 65.8207 26.5566 65.8207 30.4846V53.9504C65.8207 57.6945 68.8562 60.73 72.6003 60.73C76.3444 60.73 79.3799 57.6945 79.3799 53.9504V30.843C79.3799 19.6592 70.5642 10.2676 59.3835 10.0057H59.383Z" fill="url(#paint0_linear_30_1454)"/>
<path d="M59.383 10.0057C53.9328 9.87814 48.946 11.8925 45.2029 15.2632C45.1951 15.2699 45.1843 15.2699 45.1765 15.2632C41.4334 11.893 36.4461 9.87814 30.9964 10.0057C19.8157 10.2676 11.0005 19.6592 11.0005 30.843V53.9504C11.0005 57.6945 14.036 60.73 17.7801 60.73C21.5243 60.73 24.5598 57.6945 24.5598 53.9504V30.7041C24.5598 26.9687 27.4238 23.7406 31.155 23.5665C35.1233 23.3811 38.4108 26.5561 38.4108 30.4846V53.9504C38.4108 57.6945 41.4463 60.73 45.1905 60.73C48.9346 60.73 51.9701 57.6945 51.9701 53.9504V30.7041C51.9701 26.9687 54.8341 23.7406 58.5653 23.5665C62.5336 23.3811 65.8207 26.5566 65.8207 30.4846V53.9504C65.8207 57.6945 68.8562 60.73 72.6003 60.73C76.3444 60.73 79.3799 57.6945 79.3799 53.9504V30.843C79.3799 19.6592 70.5642 10.2676 59.3835 10.0057H59.383Z" fill="#A8DAE5"/>
<path style="mix-blend-mode:overlay" d="M30.9959 10.0057C27.8235 10.0801 24.8423 10.891 22.1978 12.2675L24.7751 28.947C24.7751 28.947 24.7803 28.949 24.7813 28.949C25.5127 26.0091 28.025 23.7127 31.1539 23.5665C35.1222 23.3811 38.2275 26.5607 38.4098 30.4846C37.9661 20.9324 45.176 15.2632 45.176 15.2632C41.4329 11.893 36.4455 9.87814 30.9959 10.0057Z" fill="url(#paint1_linear_30_1454)"/>
<path style="mix-blend-mode:overlay" d="M79.379 53.9504V36.678C72.6309 20.5858 58.5645 23.5666 58.5645 23.5666C62.5328 23.3811 65.8198 26.5566 65.8198 30.4846V53.9504C65.8198 57.6946 68.8553 60.7301 72.5994 60.7301C76.3436 60.7301 79.379 57.6946 79.379 53.9504Z" fill="url(#paint2_linear_30_1454)"/>
<path style="mix-blend-mode:overlay" opacity="0.49" d="M17.7796 60.7301C21.5238 60.7301 24.5593 57.6946 24.5593 53.9505V30.7042C24.5593 30.3927 24.5861 30.087 24.6249 29.7843C24.6233 29.7765 24.6212 29.7678 24.6212 29.7678C24.6212 29.7678 21.3507 41.5229 11 42.7341V53.95C11 57.6941 14.0355 60.7296 17.7796 60.7296V60.7301Z" fill="url(#paint3_linear_30_1454)"/>
<path style="mix-blend-mode:overlay" d="M38.4097 43.6364V53.9505C38.4097 57.6946 41.4452 60.7301 45.1893 60.7301C48.9334 60.7301 51.9689 57.6946 51.9689 53.9505V30.7042C51.9689 30.7042 47.841 40.6484 38.4097 43.6364Z" fill="url(#paint4_linear_30_1454)"/>
</g>
<defs>
<filter id="filter0_d_30_1454" x="0" y="0" width="90.3799" height="72.7301" filterUnits="userSpaceOnUse" color-interpolation-filters="sRGB">
<feFlood flood-opacity="0" result="BackgroundImageFix"/>
<feColorMatrix in="SourceAlpha" type="matrix" values="0 0 0 0 0 0 0 0 0 0 0 0 0 0 0 0 0 0 127 0" result="hardAlpha"/>
<feOffset dy="1"/>
<feGaussianBlur stdDeviation="5.5"/>
<feComposite in2="hardAlpha" operator="out"/>
<feColorMatrix type="matrix" values="0 0 0 0 0.196078 0 0 0 0 0.294118 0 0 0 0 0.313726 0 0 0 0.22 0"/>
<feBlend mode="normal" in2="BackgroundImageFix" result="effect1_dropShadow_30_1454"/>
<feBlend mode="normal" in="SourceGraphic" in2="effect1_dropShadow_30_1454" result="shape"/>
</filter>
<linearGradient id="paint0_linear_30_1454" x1="11" y1="35.365" x2="79.3789" y2="35.365" gradientUnits="userSpaceOnUse">
<stop stop-color="#8BC34A"/>
<stop offset="0.17" stop-color="#6EB956"/>
<stop offset="0.56" stop-color="#32A671"/>
<stop offset="0.85" stop-color="#0E9A81"/>
<stop offset="1" stop-color="#009688"/>
</linearGradient>
<linearGradient id="paint1_linear_30_1454" x1="22.1983" y1="20.2423" x2="45.1765" y2="20.2423" gradientUnits="userSpaceOnUse">
<stop stop-opacity="0"/>
<stop offset="0.91" stop-opacity="0.79"/>
<stop offset="1"/>
</linearGradient>
<linearGradient id="paint2_linear_30_1454" x1="68.972" y1="60.7301" x2="68.972" y2="23.3491" gradientUnits="userSpaceOnUse">
<stop stop-opacity="0"/>
<stop offset="0.91" stop-opacity="0.79"/>
<stop offset="1"/>
</linearGradient>
<linearGradient id="paint3_linear_30_1454" x1="17.8122" y1="60.7301" x2="17.8122" y2="29.7683" gradientUnits="userSpaceOnUse">
<stop stop-color="white" stop-opacity="0"/>
<stop offset="0.02" stop-color="white" stop-opacity="0.03"/>
<stop offset="0.39" stop-color="white" stop-opacity="0.44"/>
<stop offset="0.69" stop-color="white" stop-opacity="0.74"/>
<stop offset="0.9" stop-color="white" stop-opacity="0.93"/>
<stop offset="1" stop-color="white"/>
</linearGradient>
<linearGradient id="paint4_linear_30_1454" x1="45.1893" y1="60.7301" x2="45.1893" y2="30.7042" gradientUnits="userSpaceOnUse">
<stop stop-opacity="0"/>
<stop offset="0.91" stop-opacity="0.79"/>
<stop offset="1"/>
</linearGradient>
</defs>
</svg>
