<svg width="4418" height="1284" viewBox="0 0 4418 1284" fill="none" xmlns="http://www.w3.org/2000/svg">
<path d="M1224.44 0.640068C1086.6 -2.58993 960.48 48.3601 865.81 133.6C865.62 133.77 865.33 133.77 865.14 133.6C770.47 48.3601 644.34 -2.58993 506.51 0.640068C223.74 7.26007 0.790039 244.79 0.790039 527.64V1112.05C0.790039 1206.75 77.56 1283.51 172.25 1283.51C266.95 1283.51 343.71 1206.74 343.71 1112.05V524.13C343.71 429.66 416.15 348.02 510.52 343.61C610.88 338.92 694.02 419.22 694.02 518.57V1112.05C694.02 1206.75 770.79 1283.51 865.48 1283.51C960.18 1283.51 1036.94 1206.74 1036.94 1112.05V524.12C1036.94 429.65 1109.37 348.01 1203.74 343.61C1304.1 338.93 1387.24 419.23 1387.24 518.57V1112.05C1387.24 1206.75 1464.01 1283.51 1558.7 1283.51C1653.4 1283.51 1730.16 1206.74 1730.16 1112.05V527.64C1730.16 244.79 1507.21 7.26007 1224.43 0.640068H1224.44Z" fill="url(#paint0_linear_39_2100)"/>
<path d="M1224.44 0.640068C1086.6 -2.58993 960.48 48.3601 865.81 133.6C865.62 133.77 865.33 133.77 865.14 133.6C770.47 48.3601 644.34 -2.58993 506.51 0.640068C223.74 7.26007 0.790039 244.79 0.790039 527.64V1112.05C0.790039 1206.75 77.56 1283.51 172.25 1283.51C266.95 1283.51 343.71 1206.74 343.71 1112.05V524.13C343.71 429.66 416.15 348.02 510.52 343.61C610.88 338.92 694.02 419.22 694.02 518.57V1112.05C694.02 1206.75 770.79 1283.51 865.48 1283.51C960.18 1283.51 1036.94 1206.74 1036.94 1112.05V524.12C1036.94 429.65 1109.37 348.01 1203.74 343.61C1304.1 338.93 1387.24 419.23 1387.24 518.57V1112.05C1387.24 1206.75 1464.01 1283.51 1558.7 1283.51C1653.4 1283.51 1730.16 1206.74 1730.16 1112.05V527.64C1730.16 244.79 1507.21 7.26007 1224.43 0.640068H1224.44Z" fill="#D8D8D8"/>
<path style="mix-blend-mode:overlay" d="M506.51 0.639855C426.27 2.51985 350.88 23.0298 284 57.8498L349.18 479.69C349.18 479.69 349.31 479.74 349.34 479.75C367.84 405.4 431.37 347.32 510.52 343.62C610.88 338.93 689.42 419.34 694.02 518.58C682.8 277 865.15 133.61 865.15 133.61C770.48 48.3698 644.35 -2.58017 506.52 0.649834L506.51 0.639855Z" fill="url(#paint1_linear_39_2100)"/>
<path style="mix-blend-mode:overlay" d="M1730.17 1112.05V675.22C1559.5 268.24 1203.75 343.61 1203.75 343.61C1304.11 338.93 1387.25 419.23 1387.25 518.57V1112.05C1387.25 1206.75 1464.02 1283.51 1558.71 1283.51C1653.41 1283.51 1730.17 1206.74 1730.17 1112.05Z" fill="url(#paint2_linear_39_2100)"/>
<path style="mix-blend-mode:overlay" opacity="0.49" d="M172.25 1283.51C266.95 1283.51 343.71 1206.74 343.71 1112.05V524.13C343.71 516.26 344.39 508.52 345.37 500.87C345.33 500.67 345.28 500.46 345.28 500.46C345.28 500.46 262.57 797.76 0.790039 828.39V1112.06C0.790039 1206.76 77.56 1283.52 172.25 1283.52V1283.51Z" fill="url(#paint3_linear_39_2100)"/>
<path style="mix-blend-mode:overlay" d="M694.02 851.2V1112.05C694.02 1206.75 770.79 1283.51 865.48 1283.51C960.17 1283.51 1036.94 1206.74 1036.94 1112.05V524.12C1036.94 524.12 932.54 775.62 694.02 851.2Z" fill="url(#paint4_linear_39_2100)"/>
<path d="M2305.37 623.59L2305.2 551.35C2305.15 529.55 2276.42 521.69 2265.27 540.41L2227.21 604.33C2223.34 610.84 2216.33 614.82 2208.75 614.82H2203.25C2195.75 614.82 2188.8 610.91 2184.9 604.5L2147.36 542.79C2136.07 524.24 2107.53 532.24 2107.53 553.95V623.53C2107.53 635.39 2097.91 645.01 2086.05 645.01H2066.99C2055.13 645.01 2045.51 635.39 2045.51 623.53V380.87C2045.51 369.01 2055.13 359.39 2066.99 359.39H2088.05C2095.58 359.39 2102.56 363.34 2106.45 369.79L2188.55 506.1C2196.93 520.02 2217.14 519.95 2225.42 505.98L2306.12 369.92C2309.99 363.4 2317.01 359.4 2324.59 359.4H2345.21C2357.05 359.4 2366.65 368.98 2366.69 380.82L2367.38 623.48C2367.41 635.37 2357.79 645.02 2345.9 645.02H2326.85C2315.01 645.02 2305.4 635.43 2305.37 623.59Z" fill="white"/>
<path d="M2549.82 359.41C2568.07 359.41 2582.87 374.21 2582.87 392.46V611.97C2582.87 630.22 2568.07 645.02 2549.82 645.02C2531.57 645.02 2516.77 630.22 2516.77 611.97V392.46C2516.77 374.21 2531.57 359.41 2549.82 359.41Z" fill="white"/>
<path d="M2994.14 372.73V631.71C2994.14 639.07 2988.18 645.03 2980.82 645.03H2946.17C2942.18 645.03 2938.41 643.24 2935.88 640.16L2821.09 500.37C2813.15 490.71 2797.48 496.32 2797.48 508.82V631.7C2797.48 639.06 2791.52 645.02 2784.16 645.02H2745.51C2738.15 645.02 2732.19 639.06 2732.19 631.7V372.72C2732.19 365.36 2738.15 359.4 2745.51 359.4H2780.56C2784.55 359.4 2788.34 361.19 2790.86 364.28L2905.23 503.96C2913.16 513.64 2928.85 508.04 2928.85 495.52V372.72C2928.85 365.36 2934.81 359.4 2942.17 359.4H2980.82C2988.18 359.4 2994.14 365.36 2994.14 372.72V372.73Z" fill="white"/>
<path d="M3175.1 616.05C3152.38 593.48 3141.03 561.24 3141.03 519.35V392.05C3141.03 374.02 3155.64 359.41 3173.67 359.41H3174.49C3192.52 359.41 3207.13 374.02 3207.13 392.05V516.91C3207.13 568.05 3228.35 593.62 3270.78 593.62C3291.45 593.62 3307.23 587.44 3318.11 575.06C3328.99 562.68 3334.43 543.3 3334.43 516.92V392.06C3334.43 374.03 3349.04 359.42 3367.07 359.42C3385.1 359.42 3399.71 374.03 3399.71 392.06V519.36C3399.71 561.25 3388.35 593.49 3365.64 616.06C3342.93 638.64 3311.17 649.93 3270.37 649.93C3229.57 649.93 3197.81 638.65 3175.1 616.06V616.05Z" fill="white"/>
<path d="M3604.33 630.95C3580.8 618.3 3562.3 600.76 3548.84 578.31C3535.37 555.87 3528.64 530.51 3528.64 502.21C3528.64 473.91 3535.37 448.56 3548.84 426.11C3562.3 403.67 3580.8 386.12 3604.33 373.48C3627.85 360.83 3654.31 354.51 3683.69 354.51C3708.44 354.51 3730.82 358.86 3750.81 367.57C3760.03 371.59 3768.56 376.41 3776.42 382.04C3790.88 392.4 3792.19 413.43 3779.12 425.49L3777.8 426.71C3767.74 436 3752.64 436.4 3741.62 428.29C3725.81 416.65 3707.59 410.83 3686.96 410.83C3669.28 410.83 3653.5 414.7 3639.63 422.46C3625.76 430.21 3614.95 441.03 3607.19 454.9C3599.44 468.77 3595.56 484.55 3595.56 502.23C3595.56 519.91 3599.44 535.69 3607.19 549.56C3614.94 563.43 3625.75 574.25 3639.63 582C3653.5 589.75 3669.28 593.63 3686.96 593.63C3707.59 593.63 3725.8 587.74 3741.61 575.97C3752.64 567.75 3767.82 568.11 3777.93 577.44L3779.31 578.71C3792.35 590.75 3791.05 611.69 3776.67 622.11C3768.7 627.89 3760.01 632.81 3750.62 636.87C3730.49 645.57 3708.05 649.93 3683.3 649.93C3654.19 649.93 3627.87 643.61 3604.35 630.96L3604.33 630.95Z" fill="white"/>
<path d="M3960.32 359.41C3978.57 359.41 3993.37 374.21 3993.37 392.46V611.98C3993.37 630.23 3978.57 645.03 3960.32 645.03C3942.07 645.03 3927.27 630.23 3927.27 611.98V392.46C3927.27 374.21 3942.07 359.41 3960.32 359.41Z" fill="white"/>
<path d="M4321.41 583.82H4207.57C4201.89 583.82 4196.77 587.24 4194.6 592.49L4176.47 636.35C4174.3 641.6 4169.18 645.02 4163.5 645.02H4126.77C4116.61 645.02 4109.81 634.55 4113.95 625.27L4228.74 367.72C4231 362.66 4236.02 359.4 4241.56 359.4H4288.64C4294.17 359.4 4299.19 362.65 4301.45 367.71L4416.61 625.26C4420.76 634.54 4413.97 645.02 4403.8 645.02H4365.47C4359.79 645.02 4354.67 641.6 4352.5 636.35L4334.37 592.49C4332.2 587.24 4327.08 583.82 4321.4 583.82H4321.41ZM4301.95 514.23L4277.66 455.59C4272.88 444.04 4256.51 444.04 4251.73 455.59L4227.44 514.23C4223.61 523.47 4230.4 533.63 4240.41 533.63H4288.99C4298.99 533.63 4305.78 523.47 4301.96 514.23H4301.95Z" fill="white"/>
<path d="M2329.71 822.33L2296.03 923.08C2295.01 926.12 2292.17 928.171 2288.96 928.171H2282.31C2279.12 928.171 2276.29 926.14 2275.26 923.13L2252.48 856.45C2250.18 849.73 2240.68 849.73 2238.38 856.45L2215.6 923.13C2214.57 926.15 2211.74 928.171 2208.55 928.171H2201.56C2198.36 928.171 2195.51 926.12 2194.49 923.08L2160.81 822.33C2159.2 817.5 2162.79 812.521 2167.88 812.521H2169.18C2172.39 812.521 2175.24 814.58 2176.25 817.62L2198.86 885.681C2201.1 892.441 2210.64 892.501 2212.97 885.771L2236.6 817.531C2237.64 814.531 2240.47 812.521 2243.64 812.521H2248.19C2251.39 812.521 2254.23 814.56 2255.25 817.59L2278.37 886.11C2280.65 892.87 2290.21 892.87 2292.49 886.11L2315.61 817.59C2316.63 814.56 2319.47 812.521 2322.67 812.521C2327.76 812.521 2331.35 817.51 2329.74 822.33H2329.71Z" fill="white"/>
<path d="M2461.86 920.81V921.14C2461.86 925.02 2458.72 928.16 2454.84 928.16H2384.95C2381.07 928.16 2377.93 925.02 2377.93 921.14V819.53C2377.93 815.65 2381.07 812.51 2384.95 812.51H2452.52C2456.4 812.51 2459.54 815.65 2459.54 819.53V819.86C2459.54 823.74 2456.4 826.88 2452.52 826.88H2401.47C2397.59 826.88 2394.45 830.02 2394.45 833.9V855.38C2394.45 859.26 2397.59 862.4 2401.47 862.4H2445.42C2449.3 862.4 2452.44 865.54 2452.44 869.42C2452.44 873.3 2449.3 876.44 2445.42 876.44H2401.47C2397.59 876.44 2394.45 879.58 2394.45 883.46V906.76C2394.45 910.64 2397.59 913.78 2401.47 913.78H2454.84C2458.72 913.78 2461.86 916.92 2461.86 920.8V920.81Z" fill="white"/>
<path d="M2607.08 878.35C2610.93 883.25 2612.86 889.45 2612.86 896.94C2612.86 906.96 2609.09 914.68 2601.54 920.07C2593.99 925.47 2583.01 928.17 2568.58 928.17H2518.52C2515.69 928.17 2513.4 925.88 2513.4 923.05V817.63C2513.4 814.8 2515.69 812.51 2518.52 812.51H2565.28C2578.5 812.51 2588.71 815.15 2595.93 820.44C2603.14 825.73 2606.75 833.05 2606.75 842.41C2606.75 848.47 2605.34 853.7 2602.54 858.11C2601.29 860.07 2599.84 861.83 2598.21 863.38C2595.69 865.76 2596.3 869.8 2599.29 871.56C2602.33 873.35 2604.93 875.62 2607.09 878.35H2607.08ZM2529.92 831.01V857.79C2529.92 860.62 2532.21 862.91 2535.04 862.91H2563.79C2572.27 862.91 2578.8 861.34 2583.37 858.2C2587.94 855.06 2590.23 850.46 2590.23 844.4C2590.23 838.34 2587.94 833.74 2583.37 830.6C2578.8 827.46 2572.27 825.89 2563.79 825.89H2535.04C2532.21 825.89 2529.92 828.18 2529.92 831.01ZM2589.07 910.15C2593.8 907.07 2596.17 902.22 2596.17 895.61C2596.17 882.72 2586.75 876.28 2567.92 876.28H2535.04C2532.21 876.28 2529.92 878.57 2529.92 881.4V909.66C2529.92 912.49 2532.21 914.78 2535.04 914.78H2567.92C2577.28 914.78 2584.33 913.24 2589.07 910.15Z" fill="white"/>
<path d="M2732.48 823.5C2732.48 817.43 2737.4 812.51 2743.47 812.51H2781.22C2793.45 812.51 2804.29 814.93 2813.77 819.78C2823.24 824.63 2830.59 831.43 2835.83 840.18C2841.06 848.94 2843.68 858.99 2843.68 870.33C2843.68 881.67 2841.06 891.72 2835.83 900.48C2830.6 909.24 2823.25 916.04 2813.77 920.88C2804.3 925.73 2793.45 928.15 2781.22 928.15H2743.47C2737.4 928.15 2732.48 923.23 2732.48 917.16V823.48V823.5ZM2780.23 913.79C2789.59 913.79 2797.83 911.97 2804.93 908.34C2812.04 904.7 2817.51 899.61 2821.37 893.06C2825.22 886.51 2827.15 878.93 2827.15 870.34C2827.15 861.75 2825.22 854.18 2821.37 847.62C2817.51 841.07 2812.04 835.97 2804.93 832.34C2797.83 828.7 2789.59 826.89 2780.23 826.89H2759.99C2753.92 826.89 2749 831.81 2749 837.88V902.81C2749 908.88 2753.92 913.8 2759.99 913.8H2780.23V913.79Z" fill="white"/>
<path d="M2977.66 920.81V921.14C2977.66 925.02 2974.52 928.16 2970.64 928.16H2900.75C2896.87 928.16 2893.73 925.02 2893.73 921.14V819.53C2893.73 815.65 2896.87 812.51 2900.75 812.51H2968.32C2972.2 812.51 2975.34 815.65 2975.34 819.53V819.86C2975.34 823.74 2972.2 826.88 2968.32 826.88H2917.27C2913.39 826.88 2910.25 830.02 2910.25 833.9V855.38C2910.25 859.26 2913.39 862.4 2917.27 862.4H2961.22C2965.1 862.4 2968.24 865.54 2968.24 869.42C2968.24 873.3 2965.1 876.44 2961.22 876.44H2917.27C2913.39 876.44 2910.25 879.58 2910.25 883.46V906.76C2910.25 910.64 2913.39 913.78 2917.27 913.78H2970.64C2974.52 913.78 2977.66 916.92 2977.66 920.8V920.81Z" fill="white"/>
<path d="M3123.36 823.13L3079.28 923.641C3078.07 926.391 3075.35 928.171 3072.35 928.171H3065.88C3062.88 928.171 3060.16 926.401 3058.95 923.651L3014.73 823.141C3012.53 818.141 3016.19 812.521 3021.66 812.521H3022.95C3025.96 812.521 3028.68 814.301 3029.88 817.051L3062.62 891.76C3065.26 897.79 3073.82 897.811 3076.48 891.781L3109.5 817.031C3110.71 814.291 3113.43 812.521 3116.43 812.521C3121.89 812.521 3125.56 818.13 3123.36 823.13Z" fill="white"/>
<path d="M3251.43 920.81V921.14C3251.43 925.02 3248.29 928.16 3244.41 928.16H3174.52C3170.64 928.16 3167.5 925.02 3167.5 921.14V819.53C3167.5 815.65 3170.64 812.51 3174.52 812.51H3242.09C3245.97 812.51 3249.11 815.65 3249.11 819.53V819.86C3249.11 823.74 3245.97 826.88 3242.09 826.88H3191.04C3187.16 826.88 3184.02 830.02 3184.02 833.9V855.38C3184.02 859.26 3187.16 862.4 3191.04 862.4H3234.99C3238.87 862.4 3242.01 865.54 3242.01 869.42C3242.01 873.3 3238.87 876.44 3234.99 876.44H3191.04C3187.16 876.44 3184.02 879.58 3184.02 883.46V906.76C3184.02 910.64 3187.16 913.78 3191.04 913.78H3244.41C3248.29 913.78 3251.43 916.92 3251.43 920.8V920.81Z" fill="white"/>
<path d="M3310.17 812.51H3312.32C3316.29 812.51 3319.51 815.73 3319.51 819.7V906.61C3319.51 910.58 3322.73 913.8 3326.7 913.8H3374.95C3378.92 913.8 3382.14 917.02 3382.14 920.99C3382.14 924.96 3378.92 928.18 3374.95 928.18H3310.18C3306.21 928.18 3302.99 924.96 3302.99 920.99V819.71C3302.99 815.74 3306.21 812.52 3310.18 812.52L3310.17 812.51Z" fill="white"/>
<path d="M3444.4 921.81C3435.04 916.69 3427.68 909.61 3422.34 900.58C3417 891.55 3414.33 881.47 3414.33 870.35C3414.33 859.23 3417 849.15 3422.34 840.11C3427.68 831.08 3435.03 824 3444.4 818.88C3453.76 813.76 3464.28 811.2 3475.96 811.2C3487.64 811.2 3497.99 813.76 3507.35 818.88C3516.71 824 3524.04 831.05 3529.32 840.03C3534.61 849.01 3537.25 859.11 3537.25 870.35C3537.25 881.59 3534.61 891.69 3529.32 900.67C3524.03 909.65 3516.71 916.7 3507.35 921.82C3497.99 926.94 3487.52 929.5 3475.96 929.5C3464.4 929.5 3453.76 926.94 3444.4 921.82V921.81ZM3498.84 909.01C3505.61 905.16 3510.95 899.84 3514.87 893.07C3518.78 886.29 3520.73 878.72 3520.73 870.35C3520.73 861.98 3518.77 854.41 3514.87 847.63C3510.96 840.85 3505.62 835.54 3498.84 831.69C3492.06 827.84 3484.44 825.91 3475.96 825.91C3467.48 825.91 3459.79 827.84 3452.91 831.69C3446.02 835.55 3440.63 840.86 3436.72 847.63C3432.81 854.4 3430.86 861.98 3430.86 870.35C3430.86 878.72 3432.81 886.29 3436.72 893.07C3440.63 899.84 3446.03 905.16 3452.91 909.01C3459.79 912.87 3467.47 914.79 3475.96 914.79C3484.45 914.79 3492.07 912.87 3498.84 909.01Z" fill="white"/>
<path d="M3667.78 823.25C3676.37 830.41 3680.67 840.27 3680.67 852.82C3680.67 865.37 3676.37 875.24 3667.78 882.39C3659.19 889.55 3647.4 893.13 3632.42 893.13H3612.1C3607.54 893.13 3603.84 896.83 3603.84 901.39V919.89C3603.84 924.45 3600.14 928.15 3595.58 928.15C3591.02 928.15 3587.32 924.45 3587.32 919.89V820.76C3587.32 816.2 3591.02 812.5 3595.58 812.5H3632.42C3647.4 812.5 3659.19 816.08 3667.78 823.24V823.25ZM3655.88 872.07C3661.39 867.61 3664.14 861.19 3664.14 852.82C3664.14 844.45 3661.39 838.03 3655.88 833.57C3650.37 829.11 3642.39 826.88 3631.92 826.88H3612.09C3607.53 826.88 3603.83 830.58 3603.83 835.14V870.5C3603.83 875.06 3607.53 878.76 3612.09 878.76H3631.92C3642.38 878.76 3650.37 876.53 3655.88 872.07Z" fill="white"/>
<path d="M3836.95 923.09L3836.83 862.32C3836.82 857.16 3830.02 855.29 3827.37 859.73L3796.47 911.64C3795.55 913.18 3793.89 914.12 3792.1 914.12H3790.27C3788.48 914.12 3786.83 913.18 3785.91 911.65L3755.04 860.16C3752.39 855.74 3745.59 857.62 3745.59 862.77V923.08C3745.59 925.89 3743.31 928.17 3740.5 928.17H3734.81C3732 928.17 3729.72 925.89 3729.72 923.08V817.6C3729.72 814.79 3732 812.51 3734.81 812.51H3740.38C3742.18 812.51 3743.84 813.46 3744.75 815L3787.11 886.38C3789.09 889.71 3793.91 889.7 3795.87 886.35L3837.62 815.02C3838.53 813.46 3840.2 812.5 3842.01 812.5H3847.56C3850.37 812.5 3852.64 814.77 3852.65 817.58L3852.8 923.06C3852.8 925.87 3850.53 928.15 3847.71 928.15H3842.02C3839.22 928.15 3836.94 925.88 3836.93 923.07L3836.95 923.09Z" fill="white"/>
<path d="M3996.23 920.81V921.14C3996.23 925.02 3993.09 928.16 3989.21 928.16H3919.32C3915.44 928.16 3912.3 925.02 3912.3 921.14V819.53C3912.3 815.65 3915.44 812.51 3919.32 812.51H3986.89C3990.77 812.51 3993.91 815.65 3993.91 819.53V819.86C3993.91 823.74 3990.77 826.88 3986.89 826.88H3935.84C3931.96 826.88 3928.82 830.02 3928.82 833.9V855.38C3928.82 859.26 3931.96 862.4 3935.84 862.4H3979.79C3983.67 862.4 3986.81 865.54 3986.81 869.42C3986.81 873.3 3983.67 876.44 3979.79 876.44H3935.84C3931.96 876.44 3928.82 879.58 3928.82 883.46V906.76C3928.82 910.64 3931.96 913.78 3935.84 913.78H3989.21C3993.09 913.78 3996.23 916.92 3996.23 920.8V920.81Z" fill="white"/>
<path d="M4147.24 816.96V923.71C4147.24 926.17 4145.25 928.16 4142.79 928.16H4135.82C4134.47 928.16 4133.2 927.55 4132.35 926.5L4072.21 851.76C4069.58 848.49 4064.29 850.35 4064.29 854.55V923.71C4064.29 926.17 4062.3 928.16 4059.84 928.16H4052.22C4049.76 928.16 4047.77 926.17 4047.77 923.71V816.96C4047.77 814.5 4049.76 812.51 4052.22 812.51H4059.19C4060.54 812.51 4061.81 813.12 4062.66 814.17L4122.8 888.91C4125.43 892.18 4130.72 890.32 4130.72 886.12V816.95C4130.72 814.49 4132.71 812.5 4135.17 812.5H4142.79C4145.25 812.5 4147.24 814.49 4147.24 816.95V816.96Z" fill="white"/>
<path d="M4222.49 826.89H4197.21C4193.24 826.89 4190.02 823.67 4190.02 819.7C4190.02 815.73 4193.24 812.51 4197.21 812.51H4278.5C4282.47 812.51 4285.69 815.73 4285.69 819.7C4285.69 823.67 4282.47 826.89 4278.5 826.89H4253.22C4249.25 826.89 4246.03 830.11 4246.03 834.08V920.99C4246.03 924.96 4242.81 928.18 4238.84 928.18H4236.86C4232.89 928.18 4229.67 924.96 4229.67 920.99V834.08C4229.67 830.11 4226.45 826.89 4222.48 826.89H4222.49Z" fill="white"/>
<defs>
<linearGradient id="paint0_linear_39_2100" x1="0.790039" y1="642" x2="1730.17" y2="642" gradientUnits="userSpaceOnUse">
<stop stop-color="#8BC34A"/>
<stop offset="0.17" stop-color="#6EB956"/>
<stop offset="0.56" stop-color="#32A671"/>
<stop offset="0.85" stop-color="#0E9A81"/>
<stop offset="1" stop-color="#009688"/>
</linearGradient>
<linearGradient id="paint1_linear_39_2100" x1="284.01" y1="259.53" x2="865.15" y2="259.53" gradientUnits="userSpaceOnUse">
<stop stop-opacity="0"/>
<stop offset="0.91" stop-opacity="0.79"/>
<stop offset="1"/>
</linearGradient>
<linearGradient id="paint2_linear_39_2100" x1="1466.96" y1="1283.51" x2="1466.96" y2="338.1" gradientUnits="userSpaceOnUse">
<stop stop-opacity="0"/>
<stop offset="0.91" stop-opacity="0.79"/>
<stop offset="1"/>
</linearGradient>
<linearGradient id="paint3_linear_39_2100" x1="173.08" y1="1283.51" x2="173.08" y2="500.45" gradientUnits="userSpaceOnUse">
<stop stop-color="white" stop-opacity="0"/>
<stop offset="0.02" stop-color="white" stop-opacity="0.03"/>
<stop offset="0.39" stop-color="white" stop-opacity="0.44"/>
<stop offset="0.69" stop-color="white" stop-opacity="0.74"/>
<stop offset="0.9" stop-color="white" stop-opacity="0.93"/>
<stop offset="1" stop-color="white"/>
</linearGradient>
<linearGradient id="paint4_linear_39_2100" x1="865.48" y1="1283.51" x2="865.48" y2="524.12" gradientUnits="userSpaceOnUse">
<stop stop-opacity="0"/>
<stop offset="0.91" stop-opacity="0.79"/>
<stop offset="1"/>
</linearGradient>
</defs>
</svg>
